HIERARCHY
ROOT hip
{
	OFFSET 0.000000 0.000000 0.000000 
	CHANNELS 6 Xposition Yposition Zposition Xrotation Zrotation Yrotation
	JOINT abdomen
	{
		OFFSET 0.000000 3.402643 0.000000 
		CHANNELS 3 Xrotation Zrotation Yrotation
		JOINT chest
		{
			OFFSET 0.000000 8.438565 -0.680529 
			CHANNELS 3 Xrotation Zrotation Yrotation
			JOINT neck
			{
				OFFSET 0.000000 10.207942 -0.272212 
				CHANNELS 3 Xrotation Zrotation Yrotation
				JOINT head
				{
					OFFSET 0.000000 3.130431 0.000000 
					CHANNELS 3 Xrotation Zrotation Yrotation
					End Site
					{
						OFFSET 0.000000 3.130435 0.000000 
					}
				}
			}
			JOINT lCollar
			{
				OFFSET 3.470700 6.669187 -0.816635 
				CHANNELS 3 Yrotation Zrotation Xrotation
				JOINT lShldr
				{
					OFFSET 3.198488 0.000000 0.000000 
					CHANNELS 3 Zrotation Yrotation Xrotation
					JOINT lForeArm
					{
						OFFSET 10.139888 0.000000 0.000000 
						CHANNELS 3 Yrotation Zrotation Xrotation
						JOINT lHand
						{
							OFFSET 8.370511 0.000000 0.000000 
							CHANNELS 3 Zrotation Yrotation Xrotation
							End Site
							{
								OFFSET 4.083176 0.000000 0.000000 
							}
						}
					}
				}
			}
			JOINT rCollar
			{
				OFFSET -3.470700 6.669187 -0.816635 
				CHANNELS 3 Yrotation Zrotation Xrotation
				JOINT rShldr
				{
					OFFSET -3.198488 0.000000 0.000000 
					CHANNELS 3 Zrotation Yrotation Xrotation
					JOINT rForeArm
					{
						OFFSET -10.139888 0.000000 0.000000 
						CHANNELS 3 Yrotation Zrotation Xrotation
						JOINT rHand
						{
							OFFSET -8.370511 0.000000 0.000000 
							CHANNELS 3 Zrotation Yrotation Xrotation
							End Site
							{
								OFFSET -4.083176 0.000000 0.000000 
							}
						}
					}
				}
			}
		}
	}
	JOINT lThigh
	{
		OFFSET 5.308129 -1.633274 1.361059 
		CHANNELS 3 Xrotation Zrotation Yrotation
		JOINT lShin
		{
			OFFSET -2.041588 -20.007561 0.000000 
			CHANNELS 3 Xrotation Zrotation Yrotation
			JOINT lFoot
			{
				OFFSET 0.000000 -19.190928 -1.224953 
				CHANNELS 3 Xrotation Yrotation Zrotation
				End Site
				{
					OFFSET 0.000000 -2.449906 4.627600 
				}
			}
		}
	}
	JOINT rThigh
	{
		OFFSET -5.308129 -1.633274 1.361059 
		CHANNELS 3 Xrotation Zrotation Yrotation
		JOINT rShin
		{
			OFFSET 2.041588 -20.007561 0.000000 
			CHANNELS 3 Xrotation Zrotation Yrotation
			JOINT rFoot
			{
				OFFSET 0.000000 -19.190928 -1.224953 
				CHANNELS 3 Xrotation Yrotation Zrotation
				End Site
				{
					OFFSET 0.000000 -2.449906 4.627600 
				}
			}
		}
	}
}
MOTION
Frames: 8
Frame Time: 0.016667
-0.092444 42.821770 0.052345 -4.395490 1.197640 3.179450 -24.796801 -0.834354 0.964725 10.201600 -1.479420 0.436219 24.203100 13.154900 -0.126615 -8.603520 0.000000 0.000000 2.000000 -2.000000 0.000000 -82.111000 16.674200 -165.811005 30.547199 -0.332590 0.069545 5.358600 -1.511230 -133.598007 -2.000000 2.000000 0.000000 81.888901 -15.022400 -157.809006 -33.926102 0.328290 0.076313 6.654690 -0.284660 -113.283997 -4.009354 -11.375637 -25.772861 29.813663 2.912097 2.153091 -24.646416 18.698341 7.691542 -2.579027 8.310903 20.191723 29.936449 -3.136050 -2.110051 -25.105846 -29.229658 -12.899509 
-0.131748 43.013363 0.044118 -1.865300 0.478262 1.478570 -24.956100 0.341494 1.215780 11.943400 0.048277 0.598156 23.542999 12.211400 -0.121381 -8.603520 0.000000 0.000000 2.000000 -2.000000 0.000000 -83.487503 15.647600 -166.306000 30.635099 -0.332483 0.069726 5.368370 -1.469520 -134.067993 -2.000000 2.000000 0.000000 80.256104 -14.107600 -156.360992 -34.385101 0.327675 0.077219 6.651270 -0.164864 -114.280998 -6.327940 -10.474806 -25.056089 28.861870 2.806442 2.141221 -24.762411 19.024052 8.229458 -4.901196 8.454429 20.687201 28.143736 -2.983982 -2.066174 -24.355629 -28.457983 -12.497333 
-0.156829 43.115791 -0.054079 -0.302860 -1.650370 1.756770 -25.572800 0.795675 1.096840 11.825700 -0.588801 0.617762 23.381599 11.979400 -0.371949 -8.603520 0.000000 0.000000 2.000000 -2.000000 0.000000 -83.399597 15.618300 -166.315994 30.723000 -0.332376 0.069906 5.340420 -1.558070 -133.108002 -2.000000 2.000000 0.000000 80.441498 -14.195800 -156.205002 -34.570702 0.327425 0.077584 6.655650 -0.091362 -114.897003 -8.676198 -8.130472 -24.714506 29.603115 2.770354 2.189581 -24.712936 17.842800 7.739860 -5.677841 10.255718 20.835897 25.367880 -2.803468 -1.928601 -23.292513 -28.581348 -12.353809 
-0.125888 43.104237 -0.017730 -0.459175 -1.650340 1.565950 -25.531700 0.772799 1.312880 11.864400 -0.810892 0.719658 23.153999 11.649000 -0.673608 -8.603520 0.000000 0.000000 2.000000 -2.000000 0.000000 -83.360901 15.636600 -166.852997 30.967100 -0.332078 0.070406 5.348320 -1.552210 -133.138000 -2.000000 2.000000 0.000000 80.754204 -14.273600 -156.362000 -34.433899 0.327609 0.077316 6.651400 -0.026686 -115.454002 -8.598392 -8.376767 -25.058937 30.095436 2.762922 2.219016 -25.070036 18.446487 8.139580 -5.333612 10.133699 20.893497 24.940611 -2.835559 -1.902276 -22.630981 -28.419209 -11.883810 
-0.127614 43.113201 -0.029823 -0.381025 -1.689420 1.573730 -25.658001 0.757904 1.384130 11.659100 -0.887628 0.763938 23.215300 11.424600 -0.835934 -8.603520 0.000000 0.000000 2.000000 -2.000000 0.000000 -83.781197 15.556700 -167.634003 30.537399 -0.332602 0.069525 5.323610 -1.617640 -132.421997 -2.000000 2.000000 0.000000 80.910698 -14.419600 -156.567001 -34.414398 0.327636 0.077277 6.655020 -0.043102 -115.306999 -8.701454 -8.302794 -24.976894 30.085634 2.762927 2.219160 -25.216526 18.111168 8.037146 -5.385091 10.178368 20.866146 24.870960 -2.840168 -1.894504 -22.595705 -28.535234 -11.924293 
-0.146317 43.122925 -0.056591 -0.224713 -1.738270 1.725560 -25.766100 0.772332 1.311910 11.512800 -0.790828 0.721562 23.193701 11.232300 -0.910066 -8.603520 0.000000 0.000000 2.000000 -2.000000 0.000000 -83.996201 15.536400 -167.966003 30.459299 -0.332697 0.069364 5.325990 -1.627850 -132.324005 -2.000000 2.000000 0.000000 81.027496 -14.049100 -156.332001 -33.906601 0.328316 0.076274 6.655640 0.040710 -115.990997 -8.871680 -8.130205 -24.859564 29.920036 2.750420 2.218575 -25.033817 18.201483 8.069412 -5.477578 10.240604 20.929026 24.698063 -2.806806 -1.900319 -22.692965 -28.797634 -12.128792 
-0.142032 43.130455 -0.058973 -0.078158 -1.669920 1.750320 -25.854300 0.782876 1.284740 11.513000 -0.713674 0.699518 22.732000 11.163000 -0.992582 -8.603520 0.000000 0.000000 2.000000 -2.000000 0.000000 -84.172203 15.604000 -168.268997 30.410500 -0.332756 0.069264 5.317400 -1.632930 -132.274994 -2.000000 2.000000 0.000000 80.881203 -14.508100 -156.304001 -34.062901 0.328108 0.076584 6.650910 0.101979 -116.498001 -9.015326 -8.235843 -24.940617 29.870409 2.753133 2.210277 -24.779655 18.207544 7.985585 -5.676469 10.152306 20.807100 24.776302 -2.810104 -1.899863 -22.703312 -28.845531 -12.141042 
-0.139825 43.135128 -0.054981 -0.009770 -1.708980 1.767870 -25.854200 0.777516 1.298150 11.591100 -0.723474 0.709832 22.252199 10.412100 -1.361220 -8.603520 0.000000 0.000000 2.000000 -2.000000 0.000000 -84.181999 15.633200 -168.317993 30.400700 -0.332767 0.069244 5.318600 -1.641830 -132.138000 -2.000000 2.000000 0.000000 80.988998 -14.566100 -156.576996 -33.955399 0.328251 0.076371 6.647630 0.115463 -116.625000 -9.044643 -8.244424 -25.091629 29.821880 2.747406 2.209529 -24.766232 18.399181 8.066037 -5.739022 10.150767 20.709955 24.746019 -2.814040 -1.890917 -22.437410 -28.591866 -11.899856 
